<?xml version="1.0" encoding="iso-8859-1"?>
<!-- Uploaded to: SVG Repo, www.svgrepo.com, Generator: SVG Repo Mixer Tools -->
<svg height="800px" width="800px" version="1.1" id="Layer_1" xmlns="http://www.w3.org/2000/svg" xmlns:xlink="http://www.w3.org/1999/xlink" 
	 viewBox="0 0 494.656 494.656" xml:space="preserve">
<path style="fill:#859392;" d="M107.368,71.328H42.104l-18.56,88h68.04c53.12,0,68.24-26.136,68.24-49.632
	C159.832,93.136,149.752,71.328,107.368,71.328z"/>
<path d="M234.424,335.328h-65.296l-18.56,88h68.008c53.144,0,68.248-26.104,68.248-49.528
	C286.824,357.16,276.76,335.328,234.424,335.328z"/>
<path style="fill:#6A7C7C;" d="M83.824,199.328H18.552L0,287.328h68.016c53.136,0,68.264-26.168,68.264-49.608
	C136.28,221.16,126.2,199.328,83.824,199.328z"/>
<path d="M418.2,287.328h-65.248l-18.56,80h68.016c53.136,0,68.248-22.2,68.248-45.624
	C470.656,305.128,460.584,287.328,418.2,287.328z"/>
<g>
	<path style="fill:#384948;" d="M442.2,151.328h-65.248l-18.56,80h68.016c53.136,0,68.248-22.2,68.248-45.624
		C494.656,169.128,484.584,151.328,442.2,151.328z"/>
	<path style="fill:#384948;" d="M259.632,199.328h-65.256l-18.584,88h68.048c53.144,0,68.24-26.168,68.24-49.608
		C312.08,221.16,301.976,199.328,259.632,199.328z"/>
</g>
<path style="fill:#6A7C7C;" d="M283.2,71.328h-65.28l-18.544,88h68c53.16,0,68.256-26.128,68.256-49.624
	C335.632,93.144,325.56,71.328,283.2,71.328z"/>
</svg>